<svg width="24" height="24" viewBox="0 0 24 24" fill="none" xmlns="http://www.w3.org/2000/svg">
<path d="M14.6171 16.031C12.82 17.4667 10.5413 18.1599 8.24915 17.968C5.95697 17.7762 3.82525 16.714 2.29177 14.9995C0.758295 13.2851 -0.0605197 11.0486 0.00348871 8.74925C0.0674971 6.44995 1.00947 4.26243 2.63595 2.63595C4.26243 1.00947 6.44995 0.0674971 8.74925 0.00348871C11.0486 -0.0605197 13.2851 0.758295 14.9995 2.29177C16.714 3.82525 17.7762 5.95697 17.968 8.24915C18.1599 10.5413 17.4667 12.82 16.031 14.6171L23.7067 22.2908C23.8945 22.4786 24 22.7332 24 22.9988C24 23.2643 23.8945 23.519 23.7067 23.7067C23.519 23.8945 23.2643 24 22.9988 24C22.7332 24 22.4786 23.8945 22.2908 23.7067L14.6191 16.031H14.6171ZM15.999 8.99926C15.999 8.08004 15.818 7.16982 15.4662 6.32057C15.1144 5.47132 14.5988 4.69967 13.9488 4.04968C13.2988 3.39969 12.5272 2.8841 11.6779 2.53233C10.8287 2.18055 9.91848 1.9995 8.99926 1.9995C8.08004 1.9995 7.16982 2.18055 6.32057 2.53233C5.47132 2.8841 4.69967 3.39969 4.04968 4.04968C3.3997 4.69967 2.8841 5.47132 2.53233 6.32057C2.18056 7.16982 1.9995 8.08004 1.9995 8.99926C1.9995 10.8557 2.73697 12.6361 4.04968 13.9488C5.36239 15.2615 7.14281 15.999 8.99926 15.999C10.8557 15.999 12.6361 15.2615 13.9488 13.9488C15.2615 12.6361 15.999 10.8557 15.999 8.99926V8.99926Z" fill="black"/>
</svg>
